HIERARCHY
ROOT Hips
{
 OFFSET 0.000000 0.000000 0.000000
 CHANNELS 6 Xposition Yposition Zposition Yrotation Xrotation Zrotation
 JOINT Chest
 {
  OFFSET 0.000000 9.585900 0.002600
  CHANNELS 3 Yrotation Xrotation Zrotation
  JOINT Chest2
  {
   OFFSET 0.000000 9.601200 -0.005300
   CHANNELS 3 Yrotation Xrotation Zrotation
   JOINT Chest3
   {
    OFFSET 0.000000 9.561800 0.000000
    CHANNELS 3 Yrotation Xrotation Zrotation
    JOINT Chest4
    {
     OFFSET 0.000000 9.552100 0.000000
     CHANNELS 3 Yrotation Xrotation Zrotation
     JOINT Neck
     {
      OFFSET 0.000000 14.453000 0.000000
      CHANNELS 3 Yrotation Xrotation Zrotation
      JOINT Head
      {
       OFFSET 0.000000 8.936500 -0.011300
       CHANNELS 3 Yrotation Xrotation Zrotation
       End Site
       {
        OFFSET 0.000000 17.073600 -0.006000
       }
      }
     }
     JOINT RightCollar
     {
      OFFSET -2.921100 9.558500 0.000000
      CHANNELS 3 Yrotation Xrotation Zrotation
      JOINT RightShoulder
      {
       OFFSET -13.519700 0.000000 0.000000
       CHANNELS 3 Yrotation Xrotation Zrotation
       JOINT RightElbow
       {
        OFFSET 0.000000 -29.696600 0.000000
        CHANNELS 3 Yrotation Xrotation Zrotation
        JOINT RightWrist
        {
         OFFSET 0.000000 -24.004700 0.000000
         CHANNELS 3 Yrotation Xrotation Zrotation
         End Site
         {
          OFFSET 0.000000 -17.728500 0.000000
         }
        }
       }
      }
     }
     JOINT LeftCollar
     {
      OFFSET 2.921100 9.558500 0.000000
      CHANNELS 3 Yrotation Xrotation Zrotation
      JOINT LeftShoulder
      {
       OFFSET 13.519700 0.000000 0.000000
       CHANNELS 3 Yrotation Xrotation Zrotation
       JOINT LeftElbow
       {
        OFFSET 0.000000 -29.696600 0.000000
        CHANNELS 3 Yrotation Xrotation Zrotation
        JOINT LeftWrist
        {
         OFFSET 0.000000 -24.004700 0.000000
         CHANNELS 3 Yrotation Xrotation Zrotation
         End Site
         {
          OFFSET 0.000000 -17.728500 0.000000
         }
        }
       }
      }
     }
    }
   }
  }
 }
 JOINT RightHip
 {
  OFFSET -7.771700 -0.012900 -0.001300
  CHANNELS 3 Yrotation Xrotation Zrotation
  JOINT RightKnee
  {
   OFFSET 0.000000 -40.869800 0.001200
   CHANNELS 3 Yrotation Xrotation Zrotation
   JOINT RightAnkle
   {
    OFFSET 0.000000 -39.717900 0.002100
    CHANNELS 3 Yrotation Xrotation Zrotation
    JOINT RightToe
    {
     OFFSET 0.000000 -4.965400 11.033500
     CHANNELS 3 Yrotation Xrotation Zrotation
     End Site
     {
      OFFSET 0.000000 -1.423100 5.872300
     }
    }
   }
  }
 }
 JOINT LeftHip
 {
  OFFSET 7.771700 -0.012900 -0.001300
  CHANNELS 3 Yrotation Xrotation Zrotation
  JOINT LeftKnee
  {
   OFFSET 0.000000 -40.869800 0.001200
   CHANNELS 3 Yrotation Xrotation Zrotation
   JOINT LeftAnkle
   {
    OFFSET 0.000000 -39.717900 0.002100
    CHANNELS 3 Yrotation Xrotation Zrotation
    JOINT LeftToe
    {
     OFFSET 0.000000 -4.965400 11.033500
     CHANNELS 3 Yrotation Xrotation Zrotation
     End Site
     {
      OFFSET 0.000000 -1.423100 5.872300
     }
    }
   }
  }
 }
}
MOTION
Frames: 12
Frame Time: 0.008333
-86.709787 57.683232 90.850478 176.091545 -31.659121 -0.299189 3.006673 21.717348 3.844671 0.271416 2.985182 0.467496 0.465885 4.843649 0.769874 2.150500 18.355773 3.213660 0.857081 11.372838 -1.392697 2.325170 -14.647636 -3.044656 3.406554 -3.933732 -0.502174 17.359539 -16.386016 -26.840836 140.844443 -67.674490 -98.050149 19.063288 -10.462201 -37.068823 -5.804481 -4.516263 -2.202042 2.133981 -3.621899 -3.125324 36.423617 -52.061101 -75.389590 3.863434 -6.380567 3.755411 8.110659 -44.741682 -5.686961 -11.289819 68.898329 -12.186611 9.073407 24.187794 5.568714 -0.514647 -17.319531 2.910158 -5.871640 -41.021969 1.279799 28.198895 66.636320 26.244276 -15.471223 3.568160 -2.428536 0.100556 0.375307 0.059012
-86.707128 57.686708 90.845534 176.091415 -31.645097 -0.308986 3.000374 21.710450 3.848796 0.258542 2.991270 0.465936 0.478123 4.837064 0.769463 2.131857 18.361313 3.207504 0.855656 11.365817 -1.398936 2.320303 -14.664616 -3.085706 3.419755 -3.935544 -0.501886 17.339128 -16.377992 -26.834477 140.893221 -67.653643 -98.084064 19.065690 -10.431702 -37.088467 -5.794347 -4.520547 -2.203145 2.109134 -3.623726 -3.120788 36.451647 -52.072414 -75.391575 3.866257 -6.385581 3.759788 8.067477 -44.751661 -5.658320 -11.256681 68.892795 -12.164846 9.065088 24.184077 5.552004 -0.511553 -17.317994 2.912783 -5.881322 -41.036711 1.295387 28.206655 66.649937 26.258256 -15.466072 3.562252 -2.431520 0.104328 0.363386 0.056506
-86.705038 57.690214 90.840823 176.099624 -31.632079 -0.319074 2.984429 21.704782 3.848681 0.244395 2.996697 0.465766 0.476685 4.837080 0.766589 2.119962 18.361000 3.203137 0.875629 11.357854 -1.408315 2.321585 -14.672143 -3.111835 3.442725 -3.937211 -0.506424 17.328197 -16.372252 -26.830174 140.861394 -67.640454 -98.062506 19.068136 -10.430370 -37.101675 -5.775528 -4.525054 -2.209326 2.043110 -3.624876 -3.115307 36.519514 -52.085752 -75.393160 3.853518 -6.376169 3.755046 7.990120 -44.761989 -5.620276 -11.245674 68.886239 -12.171286 9.066670 24.179197 5.516307 -0.505177 -17.316336 2.920301 -5.888678 -41.048986 1.302583 28.205250 66.657232 26.264162 -15.467907 3.560357 -2.432016 0.100728 0.351445 0.052251
-86.704350 57.693027 90.837549 176.096431 -31.611172 -0.315322 2.961850 21.698588 3.835693 0.254885 2.989582 0.466017 0.433074 4.853189 0.764954 2.113825 18.353899 3.194515 0.915319 11.348312 -1.425571 2.324576 -14.678188 -3.140651 3.467504 -3.938620 -0.513169 17.357090 -16.374555 -26.836360 140.770394 -67.636722 -97.993975 19.066553 -10.440309 -37.122039 -5.750082 -4.524856 -2.225011 2.034229 -3.635022 -3.109192 36.521125 -52.100865 -75.386821 3.849986 -6.376107 3.759334 7.972925 -44.779810 -5.614176 -11.243808 68.882395 -12.178889 9.063129 24.173747 5.508015 -0.502540 -17.314830 2.920546 -5.878495 -41.069270 1.294527 28.215329 66.660469 26.285484 -15.466160 3.558715 -2.433926 0.098260 0.342782 0.049431
-86.704399 57.695393 90.835412 176.081668 -31.584553 -0.302384 2.926076 21.699333 3.810414 0.286341 2.971145 0.467120 0.419883 4.859080 0.763583 2.120253 18.347420 3.192646 0.881927 11.352764 -1.438888 2.363249 -14.689441 -3.172831 3.458521 -3.931857 -0.512804 17.355691 -16.371306 -26.834427 140.791431 -67.616765 -98.006368 19.064946 -10.419943 -37.149751 -5.767551 -4.519020 -2.230922 2.027812 -3.644014 -3.106976 36.529152 -52.113780 -75.386530 3.837683 -6.350590 3.743546 7.985642 -44.803275 -5.622671 -11.266557 68.879118 -12.200324 9.049870 24.162154 5.498384 -0.491539 -17.306714 2.918496 -5.853927 -41.094253 1.276270 28.235242 66.659192 26.322511 -15.472679 3.552210 -2.431899 0.101921 0.339954 0.039697
-86.705221 57.699290 90.831186 176.085083 -31.574335 -0.295080 2.903055 21.698127 3.793350 0.280151 2.977145 0.465847 0.417250 4.855478 0.764588 2.107899 18.353756 3.186015 0.908526 11.341061 -1.448310 2.358297 -14.690833 -3.201930 3.470377 -3.933341 -0.510163 17.359005 -16.365585 -26.845554 140.735584 -67.611541 -97.987565 19.065909 -10.449681 -37.150671 -5.758609 -4.527249 -2.243173 2.032995 -3.650763 -3.100316 36.487526 -52.124978 -75.386200 3.843024 -6.372964 3.775768 7.958620 -44.811438 -5.621984 -11.353957 68.876745 -12.287372 9.064528 24.147599 5.469922 -0.479326 -17.301718 2.922846 -5.838579 -41.101204 1.246224 28.251872 66.653303 26.357735 -15.467859 3.549119 -2.432771 0.076028 0.334795 0.033481
-86.706972 57.703171 90.827363 176.085219 -31.562809 -0.282749 2.892168 21.689712 3.777177 0.262481 2.983347 0.464973 0.418011 4.855812 0.766535 2.092340 18.354259 3.179968 0.913548 11.338850 -1.463161 2.375965 -14.694384 -3.224426 3.484570 -3.925841 -0.517124 17.340609 -16.355874 -26.848478 140.793692 -67.594357 -98.040255 19.070110 -10.461064 -37.153087 -5.750102 -4.527802 -2.258828 2.038055 -3.659965 -3.093852 36.477777 -52.134085 -75.382859 3.849449 -6.384250 3.792609 7.889300 -44.819422 -5.594310 -11.308814 68.872330 -12.287823 9.067887 24.133258 5.463338 -0.476844 -17.294472 2.918558 -5.814797 -41.106674 1.208271 28.258321 66.643703 26.385849 -15.457059 3.543745 -2.436312 0.069300 0.332964 0.029940
-86.708306 57.707050 90.823949 176.083810 -31.550383 -0.274365 2.872528 21.689134 3.765891 0.260341 2.982804 0.464287 0.426301 4.850463 0.763429 2.068186 18.358277 3.178056 0.895182 11.342317 -1.482779 2.420204 -14.704555 -3.233346 3.482669 -3.908499 -0.533684 17.346016 -16.364371 -26.840254 140.839490 -67.576366 -98.075504 19.070863 -10.447774 -37.174866 -5.746889 -4.526551 -2.264691 2.027457 -3.666903 -3.098564 36.487538 -52.149329 -75.379796 3.855732 -6.383771 3.797064 7.857957 -44.828209 -5.588693 -11.326562 68.866926 -12.316208 9.074179 24.124427 5.447976 -0.468417 -17.290683 2.916326 -5.794948 -41.112674 1.179653 28.259502 66.636243 26.407168 -15.447675 3.536828 -2.440802 0.063940 0.334456 0.027445
-86.710689 57.711524 90.819743 176.088342 -31.544584 -0.264161 2.847104 21.694087 3.748448 0.258917 2.982499 0.463820 0.433698 4.845976 0.761503 2.039118 18.367954 3.176145 0.919059 11.333681 -1.497904 2.417330 -14.704193 -3.259451 3.503161 -3.907515 -0.547480 17.340880 -16.364158 -26.834847 140.825592 -67.571213 -98.063757 19.060127 -10.441994 -37.222288 -5.748246 -4.515643 -2.273351 2.026036 -3.688737 -3.101843 36.494575 -52.167547 -75.375362 3.856734 -6.379431 3.799613 7.846707 -44.830193 -5.603550 -11.401296 68.864833 -12.378958 9.077891 24.113512 5.415945 -0.451781 -17.286937 2.919950 -5.769572 -41.112209 1.135089 28.269490 66.624702 26.440000 -15.432988 3.532430 -2.437492 0.047571 0.334077 0.019827
-86.713330 57.715740 90.816072 176.092666 -31.536546 -0.253255 2.821777 21.703594 3.729833 0.250706 2.987746 0.463480 0.444163 4.835689 0.759593 2.040630 18.363189 3.172978 0.919801 11.331826 -1.504191 2.408138 -14.704671 -3.308498 3.501443 -3.901512 -0.552420 17.338399 -16.365774 -26.830553 140.792169 -67.576796 -98.038531 19.063055 -10.456520 -37.242998 -5.748610 -4.512841 -2.277996 1.976423 -3.702788 -3.099734 36.523089 -52.182559 -75.367562 3.841106 -6.358743 3.792423 7.837339 -44.834285 -5.617760 -11.386061 68.866816 -12.366036 9.063165 24.107071 5.402115 -0.442570 -17.286134 2.918753 -5.740404 -41.114625 1.084662 28.285627 66.611837 26.482420 -15.406035 3.527975 -2.434783 0.035465 0.333352 0.013784
-86.713559 57.719598 90.813176 176.090378 -31.525945 -0.253070 2.817344 21.698193 3.728436 0.244513 2.993821 0.461906 0.428459 4.844484 0.760301 2.049777 18.353140 3.171144 0.903649 11.335083 -1.521758 2.430368 -14.714247 -3.329632 3.514606 -3.904224 -0.561260 17.339034 -16.367469 -26.829040 140.721217 -67.597561 -97.986859 19.075226 -10.479118 -37.260013 -5.734430 -4.519052 -2.285563 1.955176 -3.710545 -3.101272 36.521974 -52.199031 -75.360394 3.850068 -6.359320 3.802280 7.808790 -44.842803 -5.605550 -11.338235 68.866956 -12.328691 9.049466 24.103094 5.393477 -0.436475 -17.284891 2.913962 -5.732083 -41.122703 1.075065 28.281696 66.614073 26.495637 -15.402786 3.523633 -2.441995 0.034514 0.328879 0.013715
-86.714211 57.722237 90.812171 176.093282 -31.503549 -0.252001 2.802382 21.689382 3.720167 0.243584 2.992437 0.459809 0.427037 4.844380 0.760097 2.043889 18.350034 3.170643 0.905305 11.335170 -1.533134 2.437978 -14.720013 -3.350712 3.529444 -3.906167 -0.567112 17.324289 -16.361931 -26.821082 140.741977 -67.585337 -97.999909 19.072371 -10.470534 -37.277778 -5.731241 -4.519841 -2.287525 1.954877 -3.721104 -3.105426 36.520951 -52.212010 -75.355381 3.854226 -6.356288 3.806319 7.785054 -44.862306 -5.603196 -11.298267 68.864694 -12.295516 9.037681 24.101181 5.382460 -0.429653 -17.282802 2.911055 -5.727948 -41.142581 1.065063 28.280832 66.611344 26.503799 -15.400128 3.523049 -2.440573 0.026110 0.326008 0.010067
